#!OML:ASF E:\Steps\Project 1\Capture day 1\Session 2\Subject.ASF
:FULLY-SPECIFIED
:DEGREES
112
root 8.89851 16.2643 31.7287 -161.544 0.0408157 179.932
lowerback -23.3111 -1.44611 -4.85585
upperback 0.268637 -0.28547 -0.360395
thorax 13.4898 -0.346999 2.30264
lowerneck 1.26431 -2.63957 -4.08835
upperneck -13.1572 -2.07549 8.6909
head -3.95835 -0.952948 3.39714
rclavicle -1.19271e-015 2.06736e-014
rhumerus -33.532 -15.1456 -81.5817
rradius 33.5033
rwrist 0.465864
rhand -7.58111 -51.5252
rfingers 7.12502
rthumb 18.3119 -80.6833
lclavicle -1.19271e-015 2.06736e-014
lhumerus -27.5631 3.48293 82.4204
lradius 24.5552
lwrist -5.87711
lhand -19.6078 -15.46
lfingers 7.12502
lthumb 6.71839 14.4135
rfemur -16.9203 7.99419 19.1884
rtibia 9.34437
rfoot -20.1075 -7.19491
rtoes -31.9374
lfemur -17.8802 -10.1428 -18.3207
ltibia 9.75968
lfoot -8.83989 3.99509
ltoes -41.0541
113
root 8.89935 16.2615 31.7258 -161.547 0.0348243 180.08
lowerback -23.3631 -1.419 -4.70327
upperback 0.287963 -0.297449 -0.31528
thorax 13.5412 -0.346839 2.26202
lowerneck 1.16689 -2.63291 -4.09469
upperneck -13.1256 -2.06295 8.69428
head -3.93305 -0.942884 3.39692
rclavicle 1.68967e-015 2.46493e-014
rhumerus -33.5563 -15.1943 -81.5213
rradius 33.4271
rwrist 0.563921
rhand -7.53023 -51.3921
rfingers 7.12502
rthumb 18.3608 -80.5456
lclavicle 1.68967e-015 2.46493e-014
lhumerus -27.6495 3.23372 82.5041
lradius 24.5518
lwrist -5.75742
lhand -19.8319 -15.3941
lfingers 7.12502
lthumb 6.5021 14.4861
rfemur -16.876 8.05252 19.3633
rtibia 9.28882
rfoot -20.0781 -7.23363
rtoes -32.2025
lfemur -17.8505 -10.0608 -18.1494
ltibia 9.72803
lfoot -8.84685 3.971
ltoes -41.1296
114
root 8.89962 16.2635 31.725 -161.579 0.1067 180.141
lowerback -23.3354 -1.37466 -4.65651
upperback 0.287585 -0.257682 -0.296547
thorax 13.5215 -0.326685 2.27019
lowerneck 1.10347 -2.60859 -4.12629
upperneck -13.0666 -2.0381 8.67634
head -3.90613 -0.927323 3.39411
rclavicle 1.78906e-015 9.93923e-015
rhumerus -33.4003 -15.5352 -81.3972
rradius 33.013
rwrist 0.679571
rhand -7.9597 -51.0876
rfingers 7.12502
rthumb 17.9476 -80.2795
lclavicle 1.78906e-015 9.93923e-015
lhumerus -27.7832 2.64641 82.6975
lradius 24.5315
lwrist -5.26451
lhand -20.1047 -15.3471
lfingers 7.12502
lthumb 6.2387 14.541
rfemur -16.8463 8.03857 19.4466
rtibia 9.29404
rfoot -20.0068 -7.25409
rtoes -32.3928
lfemur -17.805 -9.87045 -18.1152
ltibia 9.73351
lfoot -8.91778 3.87712
ltoes -41.3041
115
root 8.89971 16.264 31.7249 -161.563 0.152674 180.142
lowerback -23.3474 -1.36253 -4.65551
upperback 0.267663 -0.239602 -0.297658
thorax 13.5036 -0.31676 2.27486
lowerneck 1.13563 -2.61602 -4.12293
upperneck -13.0897 -2.04403 8.69739
head -3.91777 -0.931965 3.40103
rclavicle -1.59028e-015 -2.62396e-014
rhumerus -33.6815 -15.2076 -81.4348
rradius 33.3907
rwrist 0.479232
rhand -7.8518 -51.6896
rfingers 7.12502
rthumb 18.0514 -80.8719
lclavicle -1.59028e-015 -2.62396e-014
lhumerus -27.9155 2.33596 82.7809
lradius 24.5144
lwrist -4.97243
lhand -20.0481 -15.3673
lfingers 7.12502
lthumb 6.29341 14.5192
rfemur -16.9096 8.00152 19.4476
rtibia 9.3755
rfoot -20.023 -7.24288
rtoes -32.4951
lfemur -17.8491 -9.84358 -18.1127
ltibia 9.79751
lfoot -8.99493 3.86106
ltoes -40.9244
116
root 8.90081 16.2658 31.7269 -161.652 0.1763 180.112
lowerback -23.235 -1.36778 -4.69869
upperback 0.298265 -0.242853 -0.312916
thorax 13.4763 -0.322336 2.28061
lowerneck 1.12957 -2.60601 -4.11822
upperneck -13.126 -2.02234 8.70695
head -3.92899 -0.920401 3.40295
rclavicle -1.68967e-015 -8.74653e-015
rhumerus -33.5278 -15.3669 -81.4281
rradius 33.0932
rwrist 0.513691
rhand -8.10832 -52.2981
rfingers 7.12502
rthumb 17.8046 -81.503
lclavicle -1.68967e-015 -8.74653e-015
lhumerus -27.9867 2.24149 82.7533
lradius 24.5639
lwrist -4.86616
lhand -19.7974 -15.3489
lfingers 7.12502
lthumb 6.53545 14.5303
rfemur -16.836 8.03618 19.4237
rtibia 9.40517
rfoot -20.0753 -7.19091
rtoes -32.5478
lfemur -17.8036 -9.78002 -18.1662
ltibia 9.8943
lfoot -8.96269 3.83852
ltoes -40.976
117
root 8.89883 16.266 31.7229 -161.754 0.266536 180.105
lowerback -23.1869 -1.33202 -4.67336
upperback 0.337133 -0.2045 -0.342702
thorax 13.4911 -0.304565 2.24477
lowerneck 1.09746 -2.59497 -4.10436
upperneck -13.1805 -1.99493 8.70525
head -3.94199 -0.90414 3.39954
rclavicle -4.96962e-016 9.93923e-015
rhumerus -33.9412 -15.022 -81.5015
rradius 33.72
rwrist 0.55914
rhand -7.18423 -52.2204
rfingers 7.12502
rthumb 18.6936 -81.3421
lclavicle -4.96962e-016 9.93923e-015
lhumerus -28.1158 1.96264 82.7773
lradius 24.725
lwrist -4.49927
lhand -19.6897 -15.3747
lfingers 7.12502
lthumb 6.63934 14.5012
rfemur -16.7169 8.04269 19.4075
rtibia 9.39611
rfoot -20.0334 -7.136
rtoes -32.7133
lfemur -17.6184 -9.81541 -18.2164
ltibia 9.8069
lfoot -8.87174 3.96873
ltoes -41.2729
